<svg width="24" height="24" viewBox="0 0 24 24" fill="none" xmlns="http://www.w3.org/2000/svg">
<path d="M21.845 17.7815C21.5863 17.4582 21.1146 17.4057 20.7911 17.6641L20.7865 17.6677L20.761 17.6874C20.737 17.7057 20.699 17.7342 20.6475 17.7715C20.5446 17.846 20.3881 17.9553 20.1819 18.0879C19.769 18.3533 19.1589 18.7107 18.3825 19.0691C16.8275 19.7867 14.6233 20.5 12.0093 20.5C9.39536 20.5 7.19106 19.7867 5.6361 19.0691C4.85972 18.7107 4.24959 18.3533 3.83675 18.0879C3.63048 17.9553 3.47396 17.846 3.37106 17.7715C3.31963 17.7342 3.28165 17.7057 3.2576 17.6874L3.23206 17.6677L3.22783 17.6644C2.90439 17.406 2.43231 17.4582 2.17365 17.7815C1.9149 18.105 1.96734 18.5769 2.29078 18.8357L2.29311 18.8375L2.29683 18.8405L2.3084 18.8496C2.31794 18.857 2.33114 18.8673 2.34792 18.8801C2.38149 18.9057 2.42945 18.9416 2.4913 18.9864C2.61496 19.0759 2.79437 19.201 3.02561 19.3497C3.48777 19.6468 4.15888 20.0393 5.00751 20.431C6.70255 21.2133 9.12325 22 12.0093 22C14.8954 22 17.3161 21.2133 19.0111 20.431C19.8597 20.0393 20.5308 19.6468 20.993 19.3497C21.2242 19.201 21.4036 19.0759 21.5273 18.9864C21.5892 18.9416 21.6371 18.9057 21.6707 18.8801C21.6875 18.8673 21.7007 18.857 21.7102 18.8496L21.7255 18.8375L21.7268 18.8365C21.7268 18.8365 22.2532 18.2917 21.845 17.7815Z" fill="white"/>
<path d="M12 2C12.4142 2 12.75 2.33579 12.75 2.75V3.25C12.75 3.66421 12.4142 4 12 4C11.5858 4 11.25 3.66421 11.25 3.25V2.75C11.25 2.33579 11.5858 2 12 2ZM12 5C9.79085 5 7.99999 6.79086 7.99999 9C7.99999 11.2091 9.79085 13 12 13C14.2091 13 16 11.2091 16 9C16 6.79086 14.2091 5 12 5ZM9.49999 9C9.49999 7.61929 10.6193 6.5 12 6.5C13.3807 6.5 14.5 7.61929 14.5 9C14.5 10.3807 13.3807 11.5 12 11.5C10.6193 11.5 9.49999 10.3807 9.49999 9ZM12.75 14.75C12.75 14.3358 12.4142 14 12 14C11.5858 14 11.25 14.3358 11.25 14.75V15.25C11.25 15.6642 11.5858 16 12 16C12.4142 16 12.75 15.6642 12.75 15.25V14.75ZM5.74999 8C5.33578 8 4.99999 8.33579 4.99999 8.75C4.99999 9.16421 5.33578 9.5 5.74999 9.5H6.24999C6.66421 9.5 6.99999 9.16421 6.99999 8.75C6.99999 8.33579 6.66421 8 6.24999 8H5.74999ZM17 8.75C17 8.33579 17.3358 8 17.75 8H18.25C18.6642 8 19 8.33579 19 8.75C19 9.16421 18.6642 9.5 18.25 9.5H17.75C17.3358 9.5 17 9.16421 17 8.75ZM6.71966 5.78034C7.01256 6.07323 7.48743 6.07323 7.78032 5.78034C8.07322 5.48745 8.07322 5.01257 7.78032 4.71968L7.28032 4.21968C6.98743 3.92679 6.51256 3.92679 6.21966 4.21968C5.92677 4.51257 5.92677 4.98745 6.21966 5.28034L6.71966 5.78034ZM7.78032 12.2197C7.48743 11.9268 7.01256 11.9268 6.71966 12.2197L6.21966 12.7197C5.92677 13.0126 5.92677 13.4874 6.21966 13.7803C6.51256 14.0732 6.98743 14.0732 7.28032 13.7803L7.78032 13.2803C8.07322 12.9874 8.07322 12.5126 7.78032 12.2197ZM17.2803 5.78034C16.9874 6.07323 16.5126 6.07323 16.2197 5.78034C15.9268 5.48745 15.9268 5.01257 16.2197 4.71968L16.7197 4.21968C17.0126 3.92679 17.4874 3.92679 17.7803 4.21968C18.0732 4.51257 18.0732 4.98745 17.7803 5.28034L17.2803 5.78034ZM16.2197 12.2197C16.5126 11.9268 16.9874 11.9268 17.2803 12.2197L17.7803 12.7197C18.0732 13.0126 18.0732 13.4874 17.7803 13.7803C17.4874 14.0732 17.0126 14.0732 16.7197 13.7803L16.2197 13.2803C15.9268 12.9874 15.9268 12.5126 16.2197 12.2197Z" fill="white"/>
</svg>
